<svg width="883" height="883" viewBox="0 0 883 883" fill="none" xmlns="http://www.w3.org/2000/svg">
<path d="M666.825 23.0397H216.175C162.842 23.0397 119.608 66.2746 119.608 119.607V763.392C119.608 816.725 162.842 859.96 216.175 859.96H666.825C720.158 859.96 763.392 816.725 763.392 763.392V119.607C763.392 66.2746 720.158 23.0397 666.825 23.0397Z" fill="white"/>
<path fill-rule="evenodd" clip-rule="evenodd" d="M216.175 39.0397C171.679 39.0397 135.608 75.1111 135.608 119.607V763.392C135.608 807.889 171.679 843.96 216.175 843.96H666.825C711.321 843.96 747.392 807.889 747.392 763.392V119.607C747.392 75.1111 711.321 39.0397 666.825 39.0397H216.175ZM103.608 119.607C103.608 57.438 154.006 7.03973 216.175 7.03973H666.825C728.994 7.03973 779.392 57.438 779.392 119.607V763.392C779.392 825.562 728.994 875.96 666.825 875.96H216.175C154.006 875.96 103.608 825.562 103.608 763.392V119.607Z" fill="#0070F3"/>
<path d="M283.663 488.058C282.111 488.059 280.576 487.62 279.168 486.77C277.761 485.919 276.513 484.679 275.514 483.136C274.515 481.593 273.788 479.785 273.385 477.838C272.981 475.892 272.911 473.854 273.179 471.869V471.786L289.462 355.717H226.423C224.673 355.717 222.96 355.074 221.48 353.862C220 352.65 218.814 350.919 218.061 348.869C217.307 346.819 217.015 344.534 217.22 342.278C217.425 340.023 218.117 337.888 219.218 336.122L346.169 132.393C347.614 130.011 349.62 128.31 351.88 127.549C354.14 126.788 356.531 127.009 358.685 128.178C360.84 129.347 362.64 131.4 363.81 134.023C364.981 136.645 365.458 139.694 365.168 142.702C365.168 142.927 365.121 143.145 365.092 143.371L348.752 259.47H411.779C413.529 259.47 415.243 260.113 416.722 261.325C418.202 262.537 419.388 264.268 420.142 266.318C420.895 268.368 421.187 270.653 420.982 272.908C420.777 275.164 420.085 277.299 418.985 279.065L292.016 482.794C291.018 484.431 289.749 485.754 288.303 486.665C286.857 487.576 285.271 488.052 283.663 488.058V488.058Z" fill="#0070F3"/>
<rect x="231" y="671" width="421" height="48" fill="#0070F3"/>
<rect x="231" y="576" width="421" height="48" fill="#0070F3"/>
<rect x="367" y="481" width="285" height="48" fill="#0070F3"/>
<rect x="438" y="386" width="214" height="48" fill="#0070F3"/>
<rect x="490" y="291" width="162" height="48" fill="#0070F3"/>
<rect x="490" y="196" width="162" height="48" fill="#0070F3"/>
</svg>
